/* XPM */
static char * bad_image_xpm[] = {
"32 32 2 1",
" 	c #FFFFFF",
".	c #FF0000",
"                ................",
"                ................",
"             ...................",
"           .....................",
"         .......................",
"         .......................",
"       .........................",
"       .........................",
"     ...........................",
"     ...........................",
"    ............................",
"    ............................",
"   .............................",
"   .............................",
"   ............................ ",
" ...........................    ",
"............................    ",
"..........................      ",
"........................        ",
"......................          ",
"......................          ",
"....................            ",
"....................            ",
"...................             ",
"...................             ",
"..................              ",
"..................              ",
"................                ",
"................                ",
"................                ",
"..............                  ",
"............                    "};
